<mxfile host="app.diagrams.net" agent="Mozilla/5.0 (Windows NT 10.0; Win64; x64) AppleWebKit/537.36 (KHTML, like Gecko) Chrome/131.0.0.0 Safari/537.36" version="25.0.3">
  <diagram name="Page-1" id="3ZSRl6ZBNIHc8hk3Be3y">
    <mxGraphModel dx="1867" dy="790" grid="1" gridSize="10" guides="1" tooltips="1" connect="1" arrows="1" fold="1" page="1" pageScale="1" pageWidth="827" pageHeight="1169" math="0" shadow="0">
      <root>
        <mxCell id="0" />
        <mxCell id="1" parent="0" />
        <mxCell id="AOWUB5WZIOXTorrCiiHy-1" value="Customer" style="shape=umlLifeline;perimeter=lifelinePerimeter;whiteSpace=wrap;container=1;dropTarget=0;collapsible=0;recursiveResize=0;outlineConnect=0;portConstraint=eastwest;newEdgeStyle={&quot;edgeStyle&quot;:&quot;elbowEdgeStyle&quot;,&quot;elbow&quot;:&quot;vertical&quot;,&quot;curved&quot;:0,&quot;rounded&quot;:0};participant=umlActor;verticalAlign=bottom;labelPosition=center;verticalLabelPosition=top;align=center;size=65;" vertex="1" parent="1">
          <mxGeometry x="20" y="20" width="35" height="1486" as="geometry" />
        </mxCell>
        <mxCell id="AOWUB5WZIOXTorrCiiHy-2" value="ATM Machine" style="shape=umlLifeline;perimeter=lifelinePerimeter;whiteSpace=wrap;container=1;dropTarget=0;collapsible=0;recursiveResize=0;outlineConnect=0;portConstraint=eastwest;newEdgeStyle={&quot;edgeStyle&quot;:&quot;elbowEdgeStyle&quot;,&quot;elbow&quot;:&quot;vertical&quot;,&quot;curved&quot;:0,&quot;rounded&quot;:0};size=65;" vertex="1" parent="1">
          <mxGeometry x="354" y="20" width="150" height="1486" as="geometry" />
        </mxCell>
        <mxCell id="AOWUB5WZIOXTorrCiiHy-3" value="" style="points=[];perimeter=orthogonalPerimeter;outlineConnect=0;targetShapes=umlLifeline;portConstraint=eastwest;newEdgeStyle={&quot;edgeStyle&quot;:&quot;elbowEdgeStyle&quot;,&quot;elbow&quot;:&quot;vertical&quot;,&quot;curved&quot;:0,&quot;rounded&quot;:0}" vertex="1" parent="AOWUB5WZIOXTorrCiiHy-2">
          <mxGeometry x="70" y="113" width="10" height="68" as="geometry" />
        </mxCell>
        <mxCell id="AOWUB5WZIOXTorrCiiHy-4" value="" style="points=[];perimeter=orthogonalPerimeter;outlineConnect=0;targetShapes=umlLifeline;portConstraint=eastwest;newEdgeStyle={&quot;edgeStyle&quot;:&quot;elbowEdgeStyle&quot;,&quot;elbow&quot;:&quot;vertical&quot;,&quot;curved&quot;:0,&quot;rounded&quot;:0}" vertex="1" parent="AOWUB5WZIOXTorrCiiHy-2">
          <mxGeometry x="70" y="229" width="10" height="242" as="geometry" />
        </mxCell>
        <mxCell id="AOWUB5WZIOXTorrCiiHy-5" value="" style="points=[];perimeter=orthogonalPerimeter;outlineConnect=0;targetShapes=umlLifeline;portConstraint=eastwest;newEdgeStyle={&quot;edgeStyle&quot;:&quot;elbowEdgeStyle&quot;,&quot;elbow&quot;:&quot;vertical&quot;,&quot;curved&quot;:0,&quot;rounded&quot;:0}" vertex="1" parent="AOWUB5WZIOXTorrCiiHy-2">
          <mxGeometry x="70" y="519" width="10" as="geometry" />
        </mxCell>
        <mxCell id="AOWUB5WZIOXTorrCiiHy-6" value="" style="points=[];perimeter=orthogonalPerimeter;outlineConnect=0;targetShapes=umlLifeline;portConstraint=eastwest;newEdgeStyle={&quot;edgeStyle&quot;:&quot;elbowEdgeStyle&quot;,&quot;elbow&quot;:&quot;vertical&quot;,&quot;curved&quot;:0,&quot;rounded&quot;:0}" vertex="1" parent="AOWUB5WZIOXTorrCiiHy-2">
          <mxGeometry x="70" y="577" width="10" height="68" as="geometry" />
        </mxCell>
        <mxCell id="AOWUB5WZIOXTorrCiiHy-7" value="" style="points=[];perimeter=orthogonalPerimeter;outlineConnect=0;targetShapes=umlLifeline;portConstraint=eastwest;newEdgeStyle={&quot;edgeStyle&quot;:&quot;elbowEdgeStyle&quot;,&quot;elbow&quot;:&quot;vertical&quot;,&quot;curved&quot;:0,&quot;rounded&quot;:0}" vertex="1" parent="AOWUB5WZIOXTorrCiiHy-2">
          <mxGeometry x="70" y="693" width="10" height="514" as="geometry" />
        </mxCell>
        <mxCell id="AOWUB5WZIOXTorrCiiHy-8" value="" style="points=[];perimeter=orthogonalPerimeter;outlineConnect=0;targetShapes=umlLifeline;portConstraint=eastwest;newEdgeStyle={&quot;edgeStyle&quot;:&quot;elbowEdgeStyle&quot;,&quot;elbow&quot;:&quot;vertical&quot;,&quot;curved&quot;:0,&quot;rounded&quot;:0}" vertex="1" parent="AOWUB5WZIOXTorrCiiHy-2">
          <mxGeometry x="75" y="1032" width="10" as="geometry" />
        </mxCell>
        <mxCell id="AOWUB5WZIOXTorrCiiHy-9" value="Bank Server" style="shape=umlLifeline;perimeter=lifelinePerimeter;whiteSpace=wrap;container=1;dropTarget=0;collapsible=0;recursiveResize=0;outlineConnect=0;portConstraint=eastwest;newEdgeStyle={&quot;edgeStyle&quot;:&quot;elbowEdgeStyle&quot;,&quot;elbow&quot;:&quot;vertical&quot;,&quot;curved&quot;:0,&quot;rounded&quot;:0};size=65;" vertex="1" parent="1">
          <mxGeometry x="659" y="20" width="150" height="1486" as="geometry" />
        </mxCell>
        <mxCell id="AOWUB5WZIOXTorrCiiHy-10" value="" style="points=[];perimeter=orthogonalPerimeter;outlineConnect=0;targetShapes=umlLifeline;portConstraint=eastwest;newEdgeStyle={&quot;edgeStyle&quot;:&quot;elbowEdgeStyle&quot;,&quot;elbow&quot;:&quot;vertical&quot;,&quot;curved&quot;:0,&quot;rounded&quot;:0}" vertex="1" parent="AOWUB5WZIOXTorrCiiHy-9">
          <mxGeometry x="70" y="287" width="10" height="174" as="geometry" />
        </mxCell>
        <mxCell id="AOWUB5WZIOXTorrCiiHy-11" value="" style="points=[];perimeter=orthogonalPerimeter;outlineConnect=0;targetShapes=umlLifeline;portConstraint=eastwest;newEdgeStyle={&quot;edgeStyle&quot;:&quot;elbowEdgeStyle&quot;,&quot;elbow&quot;:&quot;vertical&quot;,&quot;curved&quot;:0,&quot;rounded&quot;:0}" vertex="1" parent="AOWUB5WZIOXTorrCiiHy-9">
          <mxGeometry x="70" y="751" width="10" height="223" as="geometry" />
        </mxCell>
        <mxCell id="AOWUB5WZIOXTorrCiiHy-12" value="" style="points=[];perimeter=orthogonalPerimeter;outlineConnect=0;targetShapes=umlLifeline;portConstraint=eastwest;newEdgeStyle={&quot;edgeStyle&quot;:&quot;elbowEdgeStyle&quot;,&quot;elbow&quot;:&quot;vertical&quot;,&quot;curved&quot;:0,&quot;rounded&quot;:0}" vertex="1" parent="AOWUB5WZIOXTorrCiiHy-9">
          <mxGeometry x="70" y="1265" width="10" height="126" as="geometry" />
        </mxCell>
        <mxCell id="AOWUB5WZIOXTorrCiiHy-13" value="Database" style="shape=umlLifeline;perimeter=lifelinePerimeter;whiteSpace=wrap;container=1;dropTarget=0;collapsible=0;recursiveResize=0;outlineConnect=0;portConstraint=eastwest;newEdgeStyle={&quot;edgeStyle&quot;:&quot;elbowEdgeStyle&quot;,&quot;elbow&quot;:&quot;vertical&quot;,&quot;curved&quot;:0,&quot;rounded&quot;:0};size=65;" vertex="1" parent="1">
          <mxGeometry x="944" y="20" width="150" height="1486" as="geometry" />
        </mxCell>
        <mxCell id="AOWUB5WZIOXTorrCiiHy-14" value="" style="points=[];perimeter=orthogonalPerimeter;outlineConnect=0;targetShapes=umlLifeline;portConstraint=eastwest;newEdgeStyle={&quot;edgeStyle&quot;:&quot;elbowEdgeStyle&quot;,&quot;elbow&quot;:&quot;vertical&quot;,&quot;curved&quot;:0,&quot;rounded&quot;:0}" vertex="1" parent="AOWUB5WZIOXTorrCiiHy-13">
          <mxGeometry x="70" y="345" width="10" height="48" as="geometry" />
        </mxCell>
        <mxCell id="AOWUB5WZIOXTorrCiiHy-15" value="" style="points=[];perimeter=orthogonalPerimeter;outlineConnect=0;targetShapes=umlLifeline;portConstraint=eastwest;newEdgeStyle={&quot;edgeStyle&quot;:&quot;elbowEdgeStyle&quot;,&quot;elbow&quot;:&quot;vertical&quot;,&quot;curved&quot;:0,&quot;rounded&quot;:0}" vertex="1" parent="AOWUB5WZIOXTorrCiiHy-13">
          <mxGeometry x="70" y="809" width="10" height="48" as="geometry" />
        </mxCell>
        <mxCell id="AOWUB5WZIOXTorrCiiHy-16" value="" style="points=[];perimeter=orthogonalPerimeter;outlineConnect=0;targetShapes=umlLifeline;portConstraint=eastwest;newEdgeStyle={&quot;edgeStyle&quot;:&quot;elbowEdgeStyle&quot;,&quot;elbow&quot;:&quot;vertical&quot;,&quot;curved&quot;:0,&quot;rounded&quot;:0}" vertex="1" parent="AOWUB5WZIOXTorrCiiHy-13">
          <mxGeometry x="70" y="1323" width="10" height="58" as="geometry" />
        </mxCell>
        <mxCell id="AOWUB5WZIOXTorrCiiHy-17" value="alt" style="shape=umlFrame;dashed=1;pointerEvents=0;dropTarget=0;strokeColor=#B3B3B3;height=20;width=30" vertex="1" parent="1">
          <mxGeometry x="84" y="907" width="665" height="330" as="geometry" />
        </mxCell>
        <mxCell id="AOWUB5WZIOXTorrCiiHy-18" value="[Sufficient Funds]" style="text;strokeColor=none;fillColor=none;align=center;verticalAlign=middle;whiteSpace=wrap;" vertex="1" parent="AOWUB5WZIOXTorrCiiHy-17">
          <mxGeometry x="30" width="635" height="20" as="geometry" />
        </mxCell>
        <mxCell id="AOWUB5WZIOXTorrCiiHy-19" value="[Insufficient Funds]" style="shape=line;dashed=1;whiteSpace=wrap;verticalAlign=top;labelPosition=center;verticalLabelPosition=middle;align=center;strokeColor=#B3B3B3;" vertex="1" parent="AOWUB5WZIOXTorrCiiHy-17">
          <mxGeometry y="170" width="665" height="4" as="geometry" />
        </mxCell>
        <mxCell id="AOWUB5WZIOXTorrCiiHy-20" value="Insert Card" style="verticalAlign=bottom;edgeStyle=elbowEdgeStyle;elbow=vertical;curved=0;rounded=0;endArrow=block;" edge="1" parent="1" source="AOWUB5WZIOXTorrCiiHy-1" target="AOWUB5WZIOXTorrCiiHy-3">
          <mxGeometry relative="1" as="geometry">
            <Array as="points">
              <mxPoint x="271" y="133" />
            </Array>
          </mxGeometry>
        </mxCell>
        <mxCell id="AOWUB5WZIOXTorrCiiHy-21" value="Request PIN" style="verticalAlign=bottom;edgeStyle=elbowEdgeStyle;elbow=vertical;curved=0;rounded=0;endArrow=block;" edge="1" parent="1" source="AOWUB5WZIOXTorrCiiHy-3" target="AOWUB5WZIOXTorrCiiHy-1">
          <mxGeometry relative="1" as="geometry">
            <Array as="points">
              <mxPoint x="272" y="191" />
            </Array>
          </mxGeometry>
        </mxCell>
        <mxCell id="AOWUB5WZIOXTorrCiiHy-22" value="Enter PIN" style="verticalAlign=bottom;edgeStyle=elbowEdgeStyle;elbow=vertical;curved=0;rounded=0;endArrow=block;" edge="1" parent="1" source="AOWUB5WZIOXTorrCiiHy-1" target="AOWUB5WZIOXTorrCiiHy-4">
          <mxGeometry relative="1" as="geometry">
            <Array as="points">
              <mxPoint x="271" y="249" />
            </Array>
          </mxGeometry>
        </mxCell>
        <mxCell id="AOWUB5WZIOXTorrCiiHy-23" value="Validate PIN" style="verticalAlign=bottom;edgeStyle=elbowEdgeStyle;elbow=vertical;curved=0;rounded=0;endArrow=block;" edge="1" parent="1" source="AOWUB5WZIOXTorrCiiHy-4" target="AOWUB5WZIOXTorrCiiHy-10">
          <mxGeometry relative="1" as="geometry">
            <Array as="points">
              <mxPoint x="592" y="307" />
            </Array>
          </mxGeometry>
        </mxCell>
        <mxCell id="AOWUB5WZIOXTorrCiiHy-24" value="Check Credentials" style="verticalAlign=bottom;edgeStyle=elbowEdgeStyle;elbow=vertical;curved=0;rounded=0;endArrow=block;" edge="1" parent="1" source="AOWUB5WZIOXTorrCiiHy-10" target="AOWUB5WZIOXTorrCiiHy-14">
          <mxGeometry relative="1" as="geometry">
            <Array as="points">
              <mxPoint x="887" y="365" />
            </Array>
          </mxGeometry>
        </mxCell>
        <mxCell id="AOWUB5WZIOXTorrCiiHy-25" value="Return Validation" style="verticalAlign=bottom;edgeStyle=elbowEdgeStyle;elbow=vertical;curved=0;rounded=0;dashed=1;dashPattern=2 3;endArrow=block;" edge="1" parent="1" source="AOWUB5WZIOXTorrCiiHy-13" target="AOWUB5WZIOXTorrCiiHy-10">
          <mxGeometry relative="1" as="geometry">
            <Array as="points">
              <mxPoint x="888" y="423" />
            </Array>
          </mxGeometry>
        </mxCell>
        <mxCell id="AOWUB5WZIOXTorrCiiHy-26" value="PIN Validated" style="verticalAlign=bottom;edgeStyle=elbowEdgeStyle;elbow=vertical;curved=0;rounded=0;dashed=1;dashPattern=2 3;endArrow=block;" edge="1" parent="1" source="AOWUB5WZIOXTorrCiiHy-10" target="AOWUB5WZIOXTorrCiiHy-4">
          <mxGeometry relative="1" as="geometry">
            <Array as="points">
              <mxPoint x="593" y="481" />
            </Array>
          </mxGeometry>
        </mxCell>
        <mxCell id="AOWUB5WZIOXTorrCiiHy-27" value="Display Options" style="verticalAlign=bottom;edgeStyle=elbowEdgeStyle;elbow=vertical;curved=0;rounded=0;endArrow=block;" edge="1" parent="1" source="AOWUB5WZIOXTorrCiiHy-2" target="AOWUB5WZIOXTorrCiiHy-1">
          <mxGeometry relative="1" as="geometry">
            <Array as="points">
              <mxPoint x="274" y="539" />
            </Array>
          </mxGeometry>
        </mxCell>
        <mxCell id="AOWUB5WZIOXTorrCiiHy-28" value="Select Withdraw Cash" style="verticalAlign=bottom;edgeStyle=elbowEdgeStyle;elbow=vertical;curved=0;rounded=0;endArrow=block;" edge="1" parent="1" source="AOWUB5WZIOXTorrCiiHy-1" target="AOWUB5WZIOXTorrCiiHy-6">
          <mxGeometry relative="1" as="geometry">
            <Array as="points">
              <mxPoint x="271" y="597" />
            </Array>
          </mxGeometry>
        </mxCell>
        <mxCell id="AOWUB5WZIOXTorrCiiHy-29" value="Request Amount" style="verticalAlign=bottom;edgeStyle=elbowEdgeStyle;elbow=vertical;curved=0;rounded=0;endArrow=block;" edge="1" parent="1" source="AOWUB5WZIOXTorrCiiHy-6" target="AOWUB5WZIOXTorrCiiHy-1">
          <mxGeometry relative="1" as="geometry">
            <Array as="points">
              <mxPoint x="272" y="655" />
            </Array>
          </mxGeometry>
        </mxCell>
        <mxCell id="AOWUB5WZIOXTorrCiiHy-30" value="Enter Amount" style="verticalAlign=bottom;edgeStyle=elbowEdgeStyle;elbow=vertical;curved=0;rounded=0;endArrow=block;" edge="1" parent="1" source="AOWUB5WZIOXTorrCiiHy-1" target="AOWUB5WZIOXTorrCiiHy-7">
          <mxGeometry relative="1" as="geometry">
            <Array as="points">
              <mxPoint x="271" y="713" />
            </Array>
          </mxGeometry>
        </mxCell>
        <mxCell id="AOWUB5WZIOXTorrCiiHy-31" value="Validate Account Balance" style="verticalAlign=bottom;edgeStyle=elbowEdgeStyle;elbow=vertical;curved=0;rounded=0;endArrow=block;" edge="1" parent="1" source="AOWUB5WZIOXTorrCiiHy-7" target="AOWUB5WZIOXTorrCiiHy-11">
          <mxGeometry relative="1" as="geometry">
            <Array as="points">
              <mxPoint x="592" y="771" />
            </Array>
          </mxGeometry>
        </mxCell>
        <mxCell id="AOWUB5WZIOXTorrCiiHy-32" value="Check Balance" style="verticalAlign=bottom;edgeStyle=elbowEdgeStyle;elbow=vertical;curved=0;rounded=0;endArrow=block;" edge="1" parent="1" source="AOWUB5WZIOXTorrCiiHy-11" target="AOWUB5WZIOXTorrCiiHy-15">
          <mxGeometry relative="1" as="geometry">
            <Array as="points">
              <mxPoint x="887" y="829" />
            </Array>
          </mxGeometry>
        </mxCell>
        <mxCell id="AOWUB5WZIOXTorrCiiHy-33" value="Return Balance" style="verticalAlign=bottom;edgeStyle=elbowEdgeStyle;elbow=vertical;curved=0;rounded=0;dashed=1;dashPattern=2 3;endArrow=block;" edge="1" parent="1" source="AOWUB5WZIOXTorrCiiHy-13" target="AOWUB5WZIOXTorrCiiHy-11">
          <mxGeometry relative="1" as="geometry">
            <Array as="points">
              <mxPoint x="888" y="887" />
            </Array>
          </mxGeometry>
        </mxCell>
        <mxCell id="AOWUB5WZIOXTorrCiiHy-34" value="Authorize Transaction" style="verticalAlign=bottom;edgeStyle=elbowEdgeStyle;elbow=vertical;curved=0;rounded=0;dashed=1;dashPattern=2 3;endArrow=block;" edge="1" parent="1" source="AOWUB5WZIOXTorrCiiHy-11" target="AOWUB5WZIOXTorrCiiHy-7">
          <mxGeometry relative="1" as="geometry">
            <Array as="points">
              <mxPoint x="593" y="994" />
            </Array>
          </mxGeometry>
        </mxCell>
        <mxCell id="AOWUB5WZIOXTorrCiiHy-35" value="Dispense Cash" style="verticalAlign=bottom;edgeStyle=elbowEdgeStyle;elbow=vertical;curved=0;rounded=0;endArrow=block;" edge="1" parent="1" source="AOWUB5WZIOXTorrCiiHy-7" target="AOWUB5WZIOXTorrCiiHy-1">
          <mxGeometry relative="1" as="geometry">
            <Array as="points">
              <mxPoint x="272" y="1052" />
            </Array>
          </mxGeometry>
        </mxCell>
        <mxCell id="AOWUB5WZIOXTorrCiiHy-36" value="Decline Transaction" style="verticalAlign=bottom;edgeStyle=elbowEdgeStyle;elbow=vertical;curved=0;rounded=0;dashed=1;dashPattern=2 3;endArrow=block;" edge="1" parent="1" source="AOWUB5WZIOXTorrCiiHy-9" target="AOWUB5WZIOXTorrCiiHy-7">
          <mxGeometry relative="1" as="geometry">
            <Array as="points">
              <mxPoint x="595" y="1159" />
            </Array>
          </mxGeometry>
        </mxCell>
        <mxCell id="AOWUB5WZIOXTorrCiiHy-37" value="Insufficient Balance Message" style="verticalAlign=bottom;edgeStyle=elbowEdgeStyle;elbow=vertical;curved=0;rounded=0;endArrow=block;" edge="1" parent="1" source="AOWUB5WZIOXTorrCiiHy-7" target="AOWUB5WZIOXTorrCiiHy-1">
          <mxGeometry relative="1" as="geometry">
            <Array as="points">
              <mxPoint x="272" y="1217" />
            </Array>
          </mxGeometry>
        </mxCell>
        <mxCell id="AOWUB5WZIOXTorrCiiHy-38" value="Record Transaction" style="verticalAlign=bottom;edgeStyle=elbowEdgeStyle;elbow=vertical;curved=0;rounded=0;endArrow=block;" edge="1" parent="1" source="AOWUB5WZIOXTorrCiiHy-2" target="AOWUB5WZIOXTorrCiiHy-12">
          <mxGeometry relative="1" as="geometry">
            <Array as="points">
              <mxPoint x="590" y="1285" />
            </Array>
          </mxGeometry>
        </mxCell>
        <mxCell id="AOWUB5WZIOXTorrCiiHy-39" value="Update Account Details" style="verticalAlign=bottom;edgeStyle=elbowEdgeStyle;elbow=vertical;curved=0;rounded=0;endArrow=block;" edge="1" parent="1" source="AOWUB5WZIOXTorrCiiHy-12" target="AOWUB5WZIOXTorrCiiHy-16">
          <mxGeometry relative="1" as="geometry">
            <Array as="points">
              <mxPoint x="887" y="1343" />
            </Array>
          </mxGeometry>
        </mxCell>
        <mxCell id="AOWUB5WZIOXTorrCiiHy-40" value="Confirmation" style="verticalAlign=bottom;edgeStyle=elbowEdgeStyle;elbow=vertical;curved=0;rounded=0;dashed=1;dashPattern=2 3;endArrow=block;" edge="1" parent="1" source="AOWUB5WZIOXTorrCiiHy-16" target="AOWUB5WZIOXTorrCiiHy-12">
          <mxGeometry relative="1" as="geometry">
            <Array as="points">
              <mxPoint x="888" y="1401" />
            </Array>
          </mxGeometry>
        </mxCell>
      </root>
    </mxGraphModel>
  </diagram>
</mxfile>
